STARTFONT 2.1
COMMENT CXGEOS pxl6 -- a hand-drawn 6px UI face (5px caps, 4px
COMMENT x-height, 1px descenders). Original to CXGEOS, public domain.
COMMENT Generated by tools/pxl6gen.py -- edit the glyph table there.
FONT -cxgeos-pxl6-medium-r-normal--6-60-72-72-p-6-iso8859-15
SIZE 6 72 72
FONTBOUNDINGBOX 6 6 0 -1
STARTPROPERTIES 4
FONT_ASCENT 5
FONT_DESCENT 1
DEFAULT_CHAR 32
COPYRIGHT "public domain"
ENDPROPERTIES
CHARS 95
STARTCHAR U+0020
ENCODING 32
SWIDTH 500 0
DWIDTH 3 0
BBX 1 6 0 -1
BITMAP
00
00
00
00
00
00
ENDCHAR
STARTCHAR U+0021
ENCODING 33
SWIDTH 167 0
DWIDTH 1 0
BBX 1 6 0 -1
BITMAP
80
80
80
00
80
00
ENDCHAR
STARTCHAR U+0022
ENCODING 34
SWIDTH 500 0
DWIDTH 3 0
BBX 3 6 0 -1
BITMAP
A0
A0
00
00
00
00
ENDCHAR
STARTCHAR U+0023
ENCODING 35
SWIDTH 833 0
DWIDTH 5 0
BBX 5 6 0 -1
BITMAP
50
F8
50
F8
50
00
ENDCHAR
STARTCHAR U+0024
ENCODING 36
SWIDTH 667 0
DWIDTH 4 0
BBX 4 6 0 -1
BITMAP
70
A0
60
20
E0
00
ENDCHAR
STARTCHAR U+0025
ENCODING 37
SWIDTH 667 0
DWIDTH 4 0
BBX 4 6 0 -1
BITMAP
90
20
40
90
00
00
ENDCHAR
STARTCHAR U+0026
ENCODING 38
SWIDTH 667 0
DWIDTH 4 0
BBX 4 6 0 -1
BITMAP
40
A0
40
A0
50
00
ENDCHAR
STARTCHAR U+0027
ENCODING 39
SWIDTH 167 0
DWIDTH 1 0
BBX 1 6 0 -1
BITMAP
80
80
00
00
00
00
ENDCHAR
STARTCHAR U+0028
ENCODING 40
SWIDTH 333 0
DWIDTH 2 0
BBX 2 6 0 -1
BITMAP
40
80
80
80
40
00
ENDCHAR
STARTCHAR U+0029
ENCODING 41
SWIDTH 333 0
DWIDTH 2 0
BBX 2 6 0 -1
BITMAP
80
40
40
40
80
00
ENDCHAR
STARTCHAR U+002A
ENCODING 42
SWIDTH 500 0
DWIDTH 3 0
BBX 3 6 0 -1
BITMAP
00
A0
40
A0
00
00
ENDCHAR
STARTCHAR U+002B
ENCODING 43
SWIDTH 667 0
DWIDTH 4 0
BBX 4 6 0 -1
BITMAP
00
20
70
20
00
00
ENDCHAR
STARTCHAR U+002C
ENCODING 44
SWIDTH 333 0
DWIDTH 2 0
BBX 2 6 0 -1
BITMAP
00
00
00
00
40
80
ENDCHAR
STARTCHAR U+002D
ENCODING 45
SWIDTH 667 0
DWIDTH 4 0
BBX 4 6 0 -1
BITMAP
00
00
F0
00
00
00
ENDCHAR
STARTCHAR U+002E
ENCODING 46
SWIDTH 333 0
DWIDTH 2 0
BBX 2 6 0 -1
BITMAP
00
00
00
00
C0
00
ENDCHAR
STARTCHAR U+002F
ENCODING 47
SWIDTH 667 0
DWIDTH 4 0
BBX 4 6 0 -1
BITMAP
10
20
40
80
00
00
ENDCHAR
STARTCHAR U+0030
ENCODING 48
SWIDTH 667 0
DWIDTH 4 0
BBX 4 6 0 -1
BITMAP
60
B0
D0
90
60
00
ENDCHAR
STARTCHAR U+0031
ENCODING 49
SWIDTH 500 0
DWIDTH 3 0
BBX 3 6 0 -1
BITMAP
40
C0
40
40
E0
00
ENDCHAR
STARTCHAR U+0032
ENCODING 50
SWIDTH 667 0
DWIDTH 4 0
BBX 4 6 0 -1
BITMAP
E0
10
60
80
F0
00
ENDCHAR
STARTCHAR U+0033
ENCODING 51
SWIDTH 667 0
DWIDTH 4 0
BBX 4 6 0 -1
BITMAP
E0
10
60
10
E0
00
ENDCHAR
STARTCHAR U+0034
ENCODING 52
SWIDTH 667 0
DWIDTH 4 0
BBX 4 6 0 -1
BITMAP
30
50
90
F0
10
00
ENDCHAR
STARTCHAR U+0035
ENCODING 53
SWIDTH 667 0
DWIDTH 4 0
BBX 4 6 0 -1
BITMAP
F0
80
E0
10
E0
00
ENDCHAR
STARTCHAR U+0036
ENCODING 54
SWIDTH 667 0
DWIDTH 4 0
BBX 4 6 0 -1
BITMAP
70
80
E0
90
60
00
ENDCHAR
STARTCHAR U+0037
ENCODING 55
SWIDTH 667 0
DWIDTH 4 0
BBX 4 6 0 -1
BITMAP
F0
10
20
40
40
00
ENDCHAR
STARTCHAR U+0038
ENCODING 56
SWIDTH 667 0
DWIDTH 4 0
BBX 4 6 0 -1
BITMAP
60
90
60
90
60
00
ENDCHAR
STARTCHAR U+0039
ENCODING 57
SWIDTH 667 0
DWIDTH 4 0
BBX 4 6 0 -1
BITMAP
60
90
70
10
E0
00
ENDCHAR
STARTCHAR U+003A
ENCODING 58
SWIDTH 333 0
DWIDTH 2 0
BBX 2 6 0 -1
BITMAP
00
C0
00
C0
00
00
ENDCHAR
STARTCHAR U+003B
ENCODING 59
SWIDTH 333 0
DWIDTH 2 0
BBX 2 6 0 -1
BITMAP
00
C0
00
00
40
80
ENDCHAR
STARTCHAR U+003C
ENCODING 60
SWIDTH 667 0
DWIDTH 4 0
BBX 4 6 0 -1
BITMAP
10
20
40
20
10
00
ENDCHAR
STARTCHAR U+003D
ENCODING 61
SWIDTH 667 0
DWIDTH 4 0
BBX 4 6 0 -1
BITMAP
00
F0
00
F0
00
00
ENDCHAR
STARTCHAR U+003E
ENCODING 62
SWIDTH 500 0
DWIDTH 3 0
BBX 3 6 0 -1
BITMAP
80
40
20
40
80
00
ENDCHAR
STARTCHAR U+003F
ENCODING 63
SWIDTH 667 0
DWIDTH 4 0
BBX 4 6 0 -1
BITMAP
E0
10
60
00
20
00
ENDCHAR
STARTCHAR U+0040
ENCODING 64
SWIDTH 667 0
DWIDTH 4 0
BBX 4 6 0 -1
BITMAP
60
90
B0
80
70
00
ENDCHAR
STARTCHAR U+0041
ENCODING 65
SWIDTH 667 0
DWIDTH 4 0
BBX 4 6 0 -1
BITMAP
60
90
F0
90
90
00
ENDCHAR
STARTCHAR U+0042
ENCODING 66
SWIDTH 667 0
DWIDTH 4 0
BBX 4 6 0 -1
BITMAP
E0
90
E0
90
E0
00
ENDCHAR
STARTCHAR U+0043
ENCODING 67
SWIDTH 667 0
DWIDTH 4 0
BBX 4 6 0 -1
BITMAP
70
80
80
80
70
00
ENDCHAR
STARTCHAR U+0044
ENCODING 68
SWIDTH 667 0
DWIDTH 4 0
BBX 4 6 0 -1
BITMAP
E0
90
90
90
E0
00
ENDCHAR
STARTCHAR U+0045
ENCODING 69
SWIDTH 667 0
DWIDTH 4 0
BBX 4 6 0 -1
BITMAP
F0
80
E0
80
F0
00
ENDCHAR
STARTCHAR U+0046
ENCODING 70
SWIDTH 667 0
DWIDTH 4 0
BBX 4 6 0 -1
BITMAP
F0
80
E0
80
80
00
ENDCHAR
STARTCHAR U+0047
ENCODING 71
SWIDTH 667 0
DWIDTH 4 0
BBX 4 6 0 -1
BITMAP
70
80
B0
90
70
00
ENDCHAR
STARTCHAR U+0048
ENCODING 72
SWIDTH 667 0
DWIDTH 4 0
BBX 4 6 0 -1
BITMAP
90
90
F0
90
90
00
ENDCHAR
STARTCHAR U+0049
ENCODING 73
SWIDTH 500 0
DWIDTH 3 0
BBX 3 6 0 -1
BITMAP
E0
40
40
40
E0
00
ENDCHAR
STARTCHAR U+004A
ENCODING 74
SWIDTH 667 0
DWIDTH 4 0
BBX 4 6 0 -1
BITMAP
30
10
10
90
60
00
ENDCHAR
STARTCHAR U+004B
ENCODING 75
SWIDTH 667 0
DWIDTH 4 0
BBX 4 6 0 -1
BITMAP
90
A0
C0
A0
90
00
ENDCHAR
STARTCHAR U+004C
ENCODING 76
SWIDTH 667 0
DWIDTH 4 0
BBX 4 6 0 -1
BITMAP
80
80
80
80
F0
00
ENDCHAR
STARTCHAR U+004D
ENCODING 77
SWIDTH 833 0
DWIDTH 5 0
BBX 5 6 0 -1
BITMAP
88
D8
A8
88
88
00
ENDCHAR
STARTCHAR U+004E
ENCODING 78
SWIDTH 667 0
DWIDTH 4 0
BBX 4 6 0 -1
BITMAP
90
D0
B0
90
90
00
ENDCHAR
STARTCHAR U+004F
ENCODING 79
SWIDTH 667 0
DWIDTH 4 0
BBX 4 6 0 -1
BITMAP
60
90
90
90
60
00
ENDCHAR
STARTCHAR U+0050
ENCODING 80
SWIDTH 667 0
DWIDTH 4 0
BBX 4 6 0 -1
BITMAP
E0
90
E0
80
80
00
ENDCHAR
STARTCHAR U+0051
ENCODING 81
SWIDTH 667 0
DWIDTH 4 0
BBX 4 6 0 -1
BITMAP
60
90
90
A0
60
10
ENDCHAR
STARTCHAR U+0052
ENCODING 82
SWIDTH 667 0
DWIDTH 4 0
BBX 4 6 0 -1
BITMAP
E0
90
E0
A0
90
00
ENDCHAR
STARTCHAR U+0053
ENCODING 83
SWIDTH 667 0
DWIDTH 4 0
BBX 4 6 0 -1
BITMAP
70
80
60
10
E0
00
ENDCHAR
STARTCHAR U+0054
ENCODING 84
SWIDTH 500 0
DWIDTH 3 0
BBX 3 6 0 -1
BITMAP
E0
40
40
40
40
00
ENDCHAR
STARTCHAR U+0055
ENCODING 85
SWIDTH 667 0
DWIDTH 4 0
BBX 4 6 0 -1
BITMAP
90
90
90
90
60
00
ENDCHAR
STARTCHAR U+0056
ENCODING 86
SWIDTH 833 0
DWIDTH 5 0
BBX 5 6 0 -1
BITMAP
88
88
50
50
20
00
ENDCHAR
STARTCHAR U+0057
ENCODING 87
SWIDTH 833 0
DWIDTH 5 0
BBX 5 6 0 -1
BITMAP
88
88
A8
A8
50
00
ENDCHAR
STARTCHAR U+0058
ENCODING 88
SWIDTH 833 0
DWIDTH 5 0
BBX 5 6 0 -1
BITMAP
88
50
20
50
88
00
ENDCHAR
STARTCHAR U+0059
ENCODING 89
SWIDTH 833 0
DWIDTH 5 0
BBX 5 6 0 -1
BITMAP
88
50
20
20
20
00
ENDCHAR
STARTCHAR U+005A
ENCODING 90
SWIDTH 667 0
DWIDTH 4 0
BBX 4 6 0 -1
BITMAP
F0
20
40
80
F0
00
ENDCHAR
STARTCHAR U+005B
ENCODING 91
SWIDTH 333 0
DWIDTH 2 0
BBX 2 6 0 -1
BITMAP
C0
80
80
80
C0
00
ENDCHAR
STARTCHAR U+005C
ENCODING 92
SWIDTH 667 0
DWIDTH 4 0
BBX 4 6 0 -1
BITMAP
80
40
20
10
00
00
ENDCHAR
STARTCHAR U+005D
ENCODING 93
SWIDTH 333 0
DWIDTH 2 0
BBX 2 6 0 -1
BITMAP
C0
40
40
40
C0
00
ENDCHAR
STARTCHAR U+005E
ENCODING 94
SWIDTH 500 0
DWIDTH 3 0
BBX 3 6 0 -1
BITMAP
40
A0
00
00
00
00
ENDCHAR
STARTCHAR U+005F
ENCODING 95
SWIDTH 667 0
DWIDTH 4 0
BBX 4 6 0 -1
BITMAP
00
00
00
00
F0
00
ENDCHAR
STARTCHAR U+0060
ENCODING 96
SWIDTH 333 0
DWIDTH 2 0
BBX 2 6 0 -1
BITMAP
80
40
00
00
00
00
ENDCHAR
STARTCHAR U+0061
ENCODING 97
SWIDTH 667 0
DWIDTH 4 0
BBX 4 6 0 -1
BITMAP
00
60
30
50
70
00
ENDCHAR
STARTCHAR U+0062
ENCODING 98
SWIDTH 667 0
DWIDTH 4 0
BBX 4 6 0 -1
BITMAP
80
80
E0
90
E0
00
ENDCHAR
STARTCHAR U+0063
ENCODING 99
SWIDTH 667 0
DWIDTH 4 0
BBX 4 6 0 -1
BITMAP
00
70
80
80
70
00
ENDCHAR
STARTCHAR U+0064
ENCODING 100
SWIDTH 667 0
DWIDTH 4 0
BBX 4 6 0 -1
BITMAP
10
10
70
90
70
00
ENDCHAR
STARTCHAR U+0065
ENCODING 101
SWIDTH 667 0
DWIDTH 4 0
BBX 4 6 0 -1
BITMAP
00
60
90
E0
60
00
ENDCHAR
STARTCHAR U+0066
ENCODING 102
SWIDTH 667 0
DWIDTH 4 0
BBX 4 6 0 -1
BITMAP
30
40
E0
40
40
00
ENDCHAR
STARTCHAR U+0067
ENCODING 103
SWIDTH 667 0
DWIDTH 4 0
BBX 4 6 0 -1
BITMAP
00
70
90
70
10
60
ENDCHAR
STARTCHAR U+0068
ENCODING 104
SWIDTH 667 0
DWIDTH 4 0
BBX 4 6 0 -1
BITMAP
80
80
E0
90
90
00
ENDCHAR
STARTCHAR U+0069
ENCODING 105
SWIDTH 167 0
DWIDTH 1 0
BBX 1 6 0 -1
BITMAP
80
00
80
80
80
00
ENDCHAR
STARTCHAR U+006A
ENCODING 106
SWIDTH 500 0
DWIDTH 3 0
BBX 3 6 0 -1
BITMAP
20
00
20
20
A0
40
ENDCHAR
STARTCHAR U+006B
ENCODING 107
SWIDTH 500 0
DWIDTH 3 0
BBX 3 6 0 -1
BITMAP
80
A0
C0
A0
80
00
ENDCHAR
STARTCHAR U+006C
ENCODING 108
SWIDTH 333 0
DWIDTH 2 0
BBX 2 6 0 -1
BITMAP
C0
40
40
40
40
00
ENDCHAR
STARTCHAR U+006D
ENCODING 109
SWIDTH 833 0
DWIDTH 5 0
BBX 5 6 0 -1
BITMAP
00
00
D0
A8
A8
00
ENDCHAR
STARTCHAR U+006E
ENCODING 110
SWIDTH 667 0
DWIDTH 4 0
BBX 4 6 0 -1
BITMAP
00
00
E0
90
90
00
ENDCHAR
STARTCHAR U+006F
ENCODING 111
SWIDTH 667 0
DWIDTH 4 0
BBX 4 6 0 -1
BITMAP
00
60
90
90
60
00
ENDCHAR
STARTCHAR U+0070
ENCODING 112
SWIDTH 667 0
DWIDTH 4 0
BBX 4 6 0 -1
BITMAP
00
E0
90
E0
80
80
ENDCHAR
STARTCHAR U+0071
ENCODING 113
SWIDTH 667 0
DWIDTH 4 0
BBX 4 6 0 -1
BITMAP
00
70
90
70
10
10
ENDCHAR
STARTCHAR U+0072
ENCODING 114
SWIDTH 667 0
DWIDTH 4 0
BBX 4 6 0 -1
BITMAP
00
00
B0
C0
80
00
ENDCHAR
STARTCHAR U+0073
ENCODING 115
SWIDTH 667 0
DWIDTH 4 0
BBX 4 6 0 -1
BITMAP
00
70
C0
30
E0
00
ENDCHAR
STARTCHAR U+0074
ENCODING 116
SWIDTH 667 0
DWIDTH 4 0
BBX 4 6 0 -1
BITMAP
40
E0
40
40
30
00
ENDCHAR
STARTCHAR U+0075
ENCODING 117
SWIDTH 667 0
DWIDTH 4 0
BBX 4 6 0 -1
BITMAP
00
00
90
90
70
00
ENDCHAR
STARTCHAR U+0076
ENCODING 118
SWIDTH 667 0
DWIDTH 4 0
BBX 4 6 0 -1
BITMAP
00
00
90
90
60
00
ENDCHAR
STARTCHAR U+0077
ENCODING 119
SWIDTH 833 0
DWIDTH 5 0
BBX 5 6 0 -1
BITMAP
00
00
A8
A8
50
00
ENDCHAR
STARTCHAR U+0078
ENCODING 120
SWIDTH 667 0
DWIDTH 4 0
BBX 4 6 0 -1
BITMAP
00
00
90
60
90
00
ENDCHAR
STARTCHAR U+0079
ENCODING 121
SWIDTH 667 0
DWIDTH 4 0
BBX 4 6 0 -1
BITMAP
00
90
90
70
10
60
ENDCHAR
STARTCHAR U+007A
ENCODING 122
SWIDTH 667 0
DWIDTH 4 0
BBX 4 6 0 -1
BITMAP
00
F0
20
40
F0
00
ENDCHAR
STARTCHAR U+007B
ENCODING 123
SWIDTH 500 0
DWIDTH 3 0
BBX 3 6 0 -1
BITMAP
60
80
C0
80
60
00
ENDCHAR
STARTCHAR U+007C
ENCODING 124
SWIDTH 167 0
DWIDTH 1 0
BBX 1 6 0 -1
BITMAP
80
80
80
80
80
80
ENDCHAR
STARTCHAR U+007D
ENCODING 125
SWIDTH 500 0
DWIDTH 3 0
BBX 3 6 0 -1
BITMAP
C0
20
60
20
C0
00
ENDCHAR
STARTCHAR U+007E
ENCODING 126
SWIDTH 833 0
DWIDTH 5 0
BBX 5 6 0 -1
BITMAP
00
00
48
90
00
00
ENDCHAR
ENDFONT
